<svg xmlns="http://www.w3.org/2000/svg" xmlns:xlink="http://www.w3.org/1999/xlink" width="220px" height="125px" viewBox="0 0 880 500" preserveAspectRatio="xMidYMid meet" ><rect id="svgEditorBackground" x="0" y="0" width="880" height="500" style="fill:url(#svgEditorGrid2); stroke: none;"/><defs id="svgEditorDefs"><symbol id="1f4b0" viewBox="0 0 64 64" preserveAspectRatio="xMidYMid meet"><rect x="0" y="0" width="64" height="64" style="stroke:none;fill:none;"/><g xmlns="http://www.w3.org/2000/svg"><path d="M54,46.888C54,59.038,44.15,59,32,59s-22,0.038-22-12.112S19.85,15,32,15S54,34.737,54,46.888z" fill="#dbb471"/><g fill="#89664c"><path d="m54 46.888c0-4.12-1.136-9.112-3.106-13.912.369 3.123-.425 8.648-9.893 10.658-13.501 2.866-6.528 6.749-11.765 7.182-4.518.374-16.48-1.44-18.879-8.206-.23 1.494-.357 2.934-.357 4.278 0 12.15 9.85 12.11 22 12.11s22 .038 22-12.11" opacity=".5"/><path d="m37.915 41.12c-.433-2-2.135-2.567-3.895-2.66-.005-.94-.005-1.881.002-2.821.54.234 1.058.505 1.528.794.831.515 1.585-.817.759-1.334-.72-.445-1.487-.808-2.28-1.081.011-1.09.017-2.178.017-3.266.001-.996-1.503-.996-1.503 0 0 .956-.006 1.911-.015 2.866-.802-.137-1.612-.149-2.423-.038-.131-.716-.286-1.425-.475-2.135-.249-.96-1.701-.553-1.449.409.185.692.335 1.382.459 2.081-.063.022-.133.035-.195.062-2.037.796-3.28 2.818-1.789 4.708.694.879 1.602 1.233 2.595 1.354.055 1.303.089 2.607.128 3.91-.666-.426-1.272-.974-1.821-1.549-.68-.707-1.741.384-1.063 1.09.923.966 1.892 1.699 2.942 2.166.047 1.113.114 2.228.224 3.336.098.981 1.603.988 1.505 0-.096-.958-.158-1.919-.205-2.88.571.099 1.173.124 1.81.063.072 1.025.155 2.049.274 3.074.112.976 1.618.984 1.504 0-.126-1.116-.217-2.235-.292-3.354 2.127-.646 4.189-2.347 3.658-4.795m-5.394-5.971c-.008 1.107-.01 2.214-.005 3.322-.483.027-.942.071-1.345.107-.172.014-.335.02-.496.021-.074-1.189-.178-2.375-.341-3.56.72-.103 1.458-.057 2.187.11m-3.636 3.185c-.442-.149-.833-.391-1.163-.723-.938-.863.351-1.712 1.163-2.114.126.965.215 1.938.281 2.912-.094-.025-.187-.045-.281-.075m3.361 6.409c-.472.053-.922.015-1.348-.091-.054-1.518-.089-3.037-.147-4.556.591-.024 1.19-.083 1.771-.128.021 1.569.061 3.144.146 4.713-.143.022-.282.05-.422.062m3.244-1.147c-.396.309-.853.535-1.332.712-.074-1.462-.112-2.918-.13-4.377.18.007.358.024.527.047 1.946.29 2.455 2.421.935 3.618"/></g><path d="m33.979 55.02h-2.271v3.978l9.292 5 21-6.5v-3.48l-7.67-4.52z" fill="#699635"/><path d="m32 52.747c0 0 2.438 3.88 9.204 7.253 0 0 10.563-.506 20.796-7.253 0 0-5.942-2.868-7.593-6.747 0 0-4.04 5.566-22.407 6.747" fill="#83bf4f"/><path d="m27.483 54.948l2.213-.177.304 3.759-8.674 5.47-20.96-4.51-.267-3.29 7.124-4.89z" fill="#699635"/><path d="m29.24 52.636c0 0-2.079 3.866-8.415 7.591 0 0-10.333.349-20.821-5.24 0 0 5.571-3.183 6.884-6.986 0-.001 4.367 4.955 22.352 4.635" fill="#83bf4f"/><path d="m24.25 53.687c0 0-.313.811 1.114.857l-3.715 3.126c0 0-2.151-.248-2.652 1.283 0 0-8.992-.953-14.788-3.585 0 0 1.176-.934-.262-1.514 0 0 1.697-1.224 2.108-2.288 0 0 1.552.217 2.125-1.04.001 0 6.075 3.589 16.07 3.161z" fill="none" stroke="#699635" stroke-miterlimit="10"/><ellipse cx="8.833" cy="53.793" fill="#699635" rx="1.917" ry="1.287"/><g fill="#f9f3d9"><path d="m18.992 52.16c0 0-2.33 3.02-7.262 7.06l.225 2.768-3.529-.76-.236-2.907c0 0 5.063-4.713 6.229-6.971 0 .001 1.75.527 4.573.811"/><path d="m42.09 51.52c0 0 .929 2.373 7.67 6.843v2.926l3.88-1.2v-3.045c0 0-4.702-3.283-7.504-6.622l-4.046 1.098"/></g><path d="m36.408 48.31l-2.228-.12-.18 4.13 8.892 5.68 20.892-5.65.158-3.615-7.313-5.101z" fill="#699635"/><path d="m34.571 45.838c0 0 2.216 4.157 8.7 8.02 0 0 10.386.028 20.729-6.446 0 0-5.697-3.291-7.141-7.408 0-.001-4.219 5.571-22.288 5.837" fill="#83bf4f"/><path d="m39.08 46.928c0 0 .509.766-1.083 1.072l4.194 3.347c0 0 2.364-.643 3.223.82 0 0 10-1.75 14.583-4.167 0 0-1.5-.733 0-1.583 0 0-1.833-1.494-2.5-2.497 0 0-1.697.501-2.583-.67 0 0-3.585 3.105-15.834 3.678z" fill="none" stroke="#699635" stroke-miterlimit="10"/><path d="m46.795 49.39c-.434.537-1.67.738-2.768.444-1.097-.294-1.639-.972-1.209-1.511.434-.538 1.671-.737 2.768-.444 1.098.295 1.64.971 1.209 1.511" fill="#699635"/><path d="m44.84 44.963c0 0 2.44 3.219 7.525 7.475l-.134 3.037 3.52-.953.14-3.188c0 0-5.241-4.982-6.485-7.413-.001-.001-1.74.634-4.566 1.042" fill="#f9f3d9"/><path d="m46 2c0 6.06-7.856 16-14 16s-14-8.937-14-15c0-6.07.856 0 7 0 .882 0 5.139-3 7-3 1.33 0 4.969 3 7 3 5.333 0 7-5.573 7-1" fill="#dbb471"/><path d="m30.17 13.254c-.604.362-3.453.06-4.4.829-1.161.944.528 3.039-.67 4.274-2.371 2.445-4.296 5.115-3.728 6.643.959 2.577 2.875-4.77 4.625-2.01s1.375-1.857 4 .514.369-4.254 2.935-1.379 2.642 6.245 4.44 6.25c2.126.006-2.25-7.854.625-5.989s5.867 1.23 3.089-1.698c-.863-.909-2.135-2.486-3.516-3.917-.52-.539-.056-3.057-.591-3.511-.557-.472-2.113 1.126-2.651.842-1.157-.61-.775.511-2.602.837-1.319.235-.302-2.437-1.556-1.685" fill="#89664c"/><path d="m18.707 19.21c3.868-3.69 11.02-1.633 15.16.156 4.058 1.758 6.558-3.945 4.01-6.785-1.487-1.66-3.853.332-4.846 1.479-1.017 1.175-1.811 2.519-2.857 3.672-1.613 1.776-5.544.31-4.282-2.245 1.272-2.579 6.79.396 8.633.924 3.521 1.01 7.24 1.394 10.743.139 1.205-.432.686-2.364-.531-1.928-3.867 1.385-7.757.488-11.548-.7-1.875-.588-4.949-2.241-6.948-1.302-5.712 2.684-.361 10.415 4.369 7.373 1.07-.688 1.841-1.839 2.584-2.845.458-.619 2.997-4.431 3.576-2.531.295.968.02 2.753-1.058 3.137-.723.258-2.139-.669-2.843-.949-1.279-.509-2.612-.862-3.956-1.153-3.668-.794-8.707-.634-11.619 2.145-.935.891.481 2.303 1.414 1.413" fill="#e8e8e8"/><path d="m44.84.533c-1.042.743-2.873 2.467-5.84 2.467-2.031 0-5.67-3-7-3-1.861 0-6.118 3-7 3-3.299 0-5.071-1.747-6.01-2.428.001.004 1.106 4.491 4.509 6.761 2.499 1.667 2.167-.25 3.5-2s2.235-2.666 4.468 1.834c1.22 2.459 3.462-6.787 5.282-3.834 3.338 5.417 4.512 2.483 8.089-2.8" fill="#89664c"/><g fill="#dbb471"><path d="m52.37 52.44l-.134 3.037 3.52-.953.14-3.188c0-.001-2.073.736-3.526 1.104"/><path d="m49.759 58.36v2.926l3.88-1.2v-3.045c0 0-1.084.588-3.88 1.319"/><path d="m11.73 59.22l.225 2.768-3.529-.76-.236-2.907c0 0 1.379.486 3.54.899"/></g></g></symbol><pattern id="svgEditorGrid0" patternUnits="userSpaceOnUse" x="0" y="0" width="10" height="10" viewBox="0 0 10 10">
		<defs>
			<marker id="svgEditorGridMkCircle" viewBox="0 0 2 2" refX="1" refY="1" markerUnits="strokeWidth" markerWidth="2" markerHeight="2" orient="0deg">
			   <circle cx="1" cy="1" r="1" style="fill:black;stroke:none;"/>
			</marker>
			<marker id="svgEditorGridMkSquare" viewBox="0 0 2 2" refX="1" refY="1" markerUnits="strokeWidth" markerWidth="2" markerHeight="2" orient="0deg">
			   <rect x="0" y="0" width="2" height="2" style="fill:black;stroke:none;"/>
			</marker>
		</defs>
		<g marker-start="url(#svgEditorGridMkCircle)" marker-end="url(#svgEditorGridMkCircle)" marker-mid="url(#svgEditorGridMkCircle)" stroke="none">
			<path d="M0,0M10,0M10,10M0,10" stroke-width="0.4"/>
			<path d="M5,0M0,5M5,5M10,5M5,10" stroke-width="0.2"/>
			<g stroke-width="0.125">
				<path d="M1,0M2,0M3,0M4,0M6,0M7,0M8,0M9,0"/>
				<path d="M0,1M1,1M2,1M3,1M4,1M5,1M6,1M7,1M8,1M9,1M10,1"/>
				<path d="M0,2M1,2M2,2M3,2M4,2M5,2M6,2M7,2M8,2M9,2M10,2"/>
				<path d="M0,3M1,3M2,3M3,3M4,3M5,3M6,3M7,3M8,3M9,3M10,3"/>
				<path d="M0,4M1,4M2,4M3,4M4,4M5,4M6,4M7,4M8,4M9,4M10,4"/>
				<path d="M1,5M2,5M3,5M4,5M6,5M7,5M8,5M9,5"/>
				<path d="M0,6M1,6M2,6M3,6M4,6M5,6M6,6M7,6M8,6M9,6M10,6"/>
				<path d="M0,7M1,7M2,7M3,7M4,7M5,7M6,7M7,7M8,7M9,7M10,7"/>
				<path d="M0,8M1,8M2,8M3,8M4,8M5,8M6,8M7,8M8,8M9,8M10,8"/>
				<path d="M0,9M1,9M2,9M3,9M4,9M5,9M6,9M7,9M8,9M9,9M10,9"/>
				<path d="M1,10M2,10M3,10M4,10M6,10M7,10M8,10M9,10"/>
			</g>
		</g>
    </pattern><pattern id="svgEditorGrid1" patternUnits="userSpaceOnUse" x="0" y="0" width="10" height="10" viewBox="0 0 10 10">
		<g marker-start="url(#svgEditorGridMkSquare)" marker-end="url(#svgEditorGridMkSquare)" marker-mid="url(#svgEditorGridMkSquare)" stroke="none">
			<path d="M0,0M10,0M10,10M0,10" stroke-width="0.4"/>
			<path d="M5,0M0,5M5,5M10,5M5,10" stroke-width="0.2"/>
			<g stroke-width="0.125">
				<path d="M1,0M2,0M3,0M4,0M6,0M7,0M8,0M9,0"/>
				<path d="M0,1M1,1M2,1M3,1M4,1M5,1M6,1M7,1M8,1M9,1M10,1"/>
				<path d="M0,2M1,2M2,2M3,2M4,2M5,2M6,2M7,2M8,2M9,2M10,2"/>
				<path d="M0,3M1,3M2,3M3,3M4,3M5,3M6,3M7,3M8,3M9,3M10,3"/>
				<path d="M0,4M1,4M2,4M3,4M4,4M5,4M6,4M7,4M8,4M9,4M10,4"/>
				<path d="M1,5M2,5M3,5M4,5M6,5M7,5M8,5M9,5"/>
				<path d="M0,6M1,6M2,6M3,6M4,6M5,6M6,6M7,6M8,6M9,6M10,6"/>
				<path d="M0,7M1,7M2,7M3,7M4,7M5,7M6,7M7,7M8,7M9,7M10,7"/>
				<path d="M0,8M1,8M2,8M3,8M4,8M5,8M6,8M7,8M8,8M9,8M10,8"/>
				<path d="M0,9M1,9M2,9M3,9M4,9M5,9M6,9M7,9M8,9M9,9M10,9"/>
				<path d="M1,10M2,10M3,10M4,10M6,10M7,10M8,10M9,10"/>
			</g>
		</g>
    </pattern><pattern id="svgEditorGrid2" patternUnits="userSpaceOnUse" x="0" y="0" width="40" height="40" viewBox="0 0 10 10">
	 
	 <g style="fill:none;stroke:black;stroke-width:0.4" transform="scale(0.1)">
	     troisieme niveau 10 1 
	     <g style="stroke-dasharray:2 8;">
		<path d="M-1 0 h102 M-1 10 h102 M-1 20 h102 M-1 30 h102 M-1 40 h102 M-1 50 h102 M-1 60 h102 M-1 70 h102 M-1 80 h102 M-1 90 h102 M-1 100 h102"/>
		<path d="M0-1 v102 M10-1 v102 M20-1 v102 M30-1 v102 M40-1 v102 M50 -1 v102 M60-1 v102 M70-1 v102 M80-1 v102 M90-1 v102 M100-1 v102"/>
	     </g>
	      deuxieme niveau 50/3 
	     <g style="stroke-dasharray:6 44;">
		<path d="M-3 0 h106 M-3 50 h106 M-3 100 h106"/>
		<path d="M0-3 v106 M50-3 v106 M100-3 v106"/>
	     </g>
	      premier niveau 100/5 
	      <g style="stroke-dasharray:10 90;">
		<path d="M-5 0 h110 M-5 100 h110"/>
		<path d="M0-5 v119 M100-5 v110"/>
	     </g>
	 </g>
	</pattern></defs><circle id="e1_circle" cx="197" cy="171" style="fill:gold;stroke:#FFAB00;stroke-width:9.05px;" r="124.0362850137"/><use xlink:href="#1f4b0" x="114.4609375" y="80.92185974121094" width="170" height="165" id="e2_emoji" /></svg>