<svg xmlns="http://www.w3.org/2000/svg" xmlns:xlink="http://www.w3.org/1999/xlink" width="870px" height="540px" viewBox="0 0 870 540" preserveAspectRatio="xMidYMid meet"  ><rect id="svgEditorBackground" x="0" y="0" width="870" height="540" style="fill: none; stroke: none;"/><defs id="svgEditorDefs"><polygon id="svgEditorShapeDefs" style="fill:khaki;stroke:black;vector-effect:non-scaling-stroke;stroke-width:1px;"/><linearGradient gradientUnits="objectBoundingBox" id="lgrd2-fire" spreadMethod="pad" x1="0%" x2="100%" y1="0%" y2="0%"><stop offset="0%" style="stop-color:rgb(255,255,0);stop-opacity:1"/><stop offset="100%" style="stop-color:rgb(255,0,0);stop-opacity:1"/></linearGradient></defs><rect x="-7725" y="-882" style="fill:khaki;stroke:black;stroke-width:1px;" id="e1_rectangle" width="4960" height="1120" ry="0" rx="0" transform="matrix(1.02511 0 0 1.02511 61.3975 -14.0122)"/><polyline style="stroke:black;fill:none;stroke-width:1px;" id="e5_polyline" points="-326221 -28402 -346701 -63218 -59981 -71410 -38477 -40690 -326221 -29426"/><g id="e10_group" transform="matrix(3.04805 0 0 3.04805 -870.677 -548.408)"><g id="e11_group"><rect x="350.44169291426414" y="264.5390475447273" style="fill:red;stroke:none;stroke-width:1px;" id="e8_rectangle" width="29.25" height="7.75" ry="0" rx="0" transform="matrix(0.989995 0 0 0.961699 3.47984 10.0805)"/><path d="M39.71073695596299,0.7718061979816326l-4.489795918367307,7.0912653061224376h4.408163265306143Z" style="fill:red; stroke:none; vector-effect:non-scaling-stroke;stroke-width:1px;" id="e1_shape" transform="matrix(-1.79784 -0.00582484 -0.00439514 1.06355 450.526 263.816)"/><path d="M-0.3100156456254159,-17.918319440365195l-4.489795918367319,7.091265306122423h4.408163265306121Z" style="fill:red; stroke:none; vector-effect:non-scaling-stroke;stroke-width:1px;" id="e2_shape" transform="matrix(1.87698 0.0373836 0.0251901 -1.07178 351.602 252.853)"/><path d="M20.829756998398572,-17.180965866143254l-4.489795918367321,7.091265306122423h4.408163265306129Z" style="fill:red; stroke:none; vector-effect:non-scaling-stroke;stroke-width:1px;" id="e5_shape" transform="matrix(1.87698 0.0373836 0.0251901 -1.07178 351.602 252.853)"/><rect x="390.5400123132674" y="264.53924560546875" style="fill:red;stroke:none;stroke-width:1px;" id="e5_rectangle" width="29.25" height="7.75" ry="0" rx="0" transform="matrix(0.989995 0 0 0.961699 3.47984 10.0805)"/><path d="M17.630366152980685,0.6508766293004983l-4.489795918367303,7.091265306122423h4.408163265306133Z" style="fill:red; stroke:none; vector-effect:non-scaling-stroke;stroke-width:1px;" id="e6_shape" transform="matrix(-1.79784 -0.00582484 -0.00439514 1.06355 450.526 263.816)"/><path d="M41.96953038713053,-16.443612230255894l-4.489795918367321,7.091265306122423h4.408163265306136Z" style="fill:silver; stroke:none; vector-effect:non-scaling-stroke;stroke-width:1px;" id="e7_shape" transform="matrix(1.87698 0.0373836 0.0251901 -1.07178 351.602 252.853)"/><rect x="430.6382483972518" y="264.53924560546875" style="fill:silver;stroke:none;stroke-width:1px;" id="e7_rectangle" width="29.25" height="7.75" ry="0" rx="0" transform="matrix(0.989995 0 0 0.961699 3.47984 10.0805)"/><path d="M-4.450004327822409,0.5299470635976631l-4.489795918367303,7.091265306122423h4.4081632653061344Z" style="fill:silver; stroke:none; vector-effect:non-scaling-stroke;stroke-width:1px;" id="e9_shape" transform="matrix(-1.79784 -0.00582484 -0.00439514 1.06355 450.526 263.816)"/><path d="M63.28401264684375,-15.70016476266699l-4.489795918367321,7.091265306122423h4.408163265306143Z" style="fill:silver; stroke:none; vector-effect:non-scaling-stroke;stroke-width:1px;" id="e11_shape" transform="matrix(1.87698 0.0373836 0.0251901 -1.07178 351.602 252.853)"/><rect x="471.0678786304411" y="264.53924560546875" style="fill:silver;stroke:none;stroke-width:1px;" id="e11_rectangle" width="29.25" height="7.75" ry="0" rx="0" transform="matrix(0.989995 0 0 0.961699 3.47984 10.0805)"/><path d="M-26.71285720929332,0.40801807999649026l-4.489795918367307,7.0912653061224225h4.40816326530614Z" style="fill:silver; stroke:none; vector-effect:non-scaling-stroke;stroke-width:1px;" id="e12_shape" transform="matrix(-1.79784 -0.00582484 -0.00439514 1.06355 450.526 263.816)"/></g><g id="e14_group" transform="matrix(1 0 0 1 38.7133 -4.14957e-12)"><rect x="340.16946985602397" y="272.0451414942003" style="fill:red;stroke:none;stroke-width:1px;" id="e2_rectangle" width="29.25" height="7.75" ry="0" rx="0" transform="matrix(1.00248 -0.00587273 -0.0080935 -0.998659 -26.8861 554.449)"/><path d="M-5.635655167868546,-24.838414973751657l-4.489795918367314,7.091265306122427h4.408163265306108Z" style="fill:red; stroke:none; vector-effect:non-scaling-stroke;stroke-width:1px;" id="e3_shape" transform="matrix(1.90034 -0.0499547 0.0345278 1.11282 323.584 300.281)"/><path d="M45.351100591614035,7.589146600902982l-4.4897959183672995,7.0912653061224376h4.408163265306101Z" style="fill:red; stroke:none; vector-effect:non-scaling-stroke;stroke-width:1px;" id="e4_shape" transform="matrix(-1.82047 0.0167136 -0.0134012 -1.1044 423.664 288.31)"/><path d="M15.064503815701585,-23.90918085947091l-4.489795918367308,7.09126530612242h4.40816326530611Z" style="fill:red; stroke:none; vector-effect:non-scaling-stroke;stroke-width:1px;" id="e13_shape" transform="matrix(1.90034 -0.0499547 0.0345278 1.11282 323.584 300.281)"/><rect x="379.43997965601153" y="271.8143957544274" style="fill:red;stroke:none;stroke-width:1px;" id="e13_rectangle" width="29.25" height="7.75" ry="0" rx="0" transform="matrix(1.00248 -0.00587273 -0.0080935 -0.998659 -26.8861 554.449)"/><path d="M23.727541140117623,7.261903243466612l-4.4897959183672995,7.0912653061224376h4.408163265306104Z" style="fill:red; stroke:none; vector-effect:non-scaling-stroke;stroke-width:1px;" id="e14_shape" transform="matrix(-1.82047 0.0167136 -0.0134012 -1.1044 423.664 288.31)"/><path d="M35.76466279927172,-22.97994674519017l-4.489795918367307,7.09126530612242h4.408163265306115Z" style="fill:silver; stroke:none; vector-effect:non-scaling-stroke;stroke-width:1px;" id="e15_shape" transform="matrix(1.90034 -0.0499547 0.0345278 1.11282 323.584 300.281)"/><rect x="418.71060953882403" y="271.5836828638024" style="fill:silver;stroke:none;stroke-width:1px;" id="e15_rectangle" width="29.25" height="7.75" ry="0" rx="0" transform="matrix(1.00248 -0.00587273 -0.0080935 -0.998659 -26.8861 554.449)"/><path d="M2.1039816886212055,6.934659886030239l-4.489795918367298,7.0912653061224376h4.4081632653061025Z" style="fill:silver; stroke:none; vector-effect:non-scaling-stroke;stroke-width:1px;" id="e16_shape" transform="matrix(-1.82047 0.0167136 -0.0134012 -1.1044 423.664 288.31)"/><path d="M56.46482178284186,-22.050712630909423l-4.489795918367307,7.09126530612242h4.408163265306122Z" style="fill:silver; stroke:none; vector-effect:non-scaling-stroke;stroke-width:1px;" id="e17_shape" transform="matrix(1.90034 -0.0499547 0.0345278 1.11282 323.584 300.281)"/><rect x="457.9812239572697" y="271.3529626440101" style="fill:silver;stroke:none;stroke-width:1px;" id="e17_rectangle" width="29.25" height="7.75" ry="0" rx="0" transform="matrix(1.00248 -0.00587273 -0.0080935 -0.998659 -26.8861 554.449)"/><path d="M-19.519577762875212,6.607416528593879l-4.4897959183672995,7.0912653061224304h4.408163265306104Z" style="fill:silver; stroke:none; vector-effect:non-scaling-stroke;stroke-width:1px;" id="e18_shape" transform="matrix(-1.82047 0.0167136 -0.0134012 -1.1044 423.664 288.31)"/></g></g></svg>