<svg xmlns="http://www.w3.org/2000/svg" xmlns:xlink="http://www.w3.org/1999/xlink" width="880px" height="500px" viewBox="0 0 880 500" preserveAspectRatio="xMidYMid meet" ><rect id="svgEditorBackground" x="0" y="0" width="880" height="500" style="fill: none; stroke: none;"/><defs id="svgEditorDefs"><polygon id="svgEditorShapeDefs" style="fill:khaki;stroke:black;vector-effect:non-scaling-stroke;stroke-width:1px;"/><symbol id="2764" viewBox="0 0 64 64" preserveAspectRatio="xMidYMid meet"><rect x="0" y="0" width="64" height="64" style="stroke:none;fill:none;"/><g xmlns="http://www.w3.org/2000/svg"><path d="m61.07 18.16c-6.395-16.918-27.15-9.328-29.07-.879-2.64-9-22.89-15.721-29.07.891-6.881 18.502 26.67 35.11 29.07 37.828 2.397-2.162 35.952-19.639 29.07-37.84" fill="#f46767"/></g></symbol></defs><path d="M7.9241483470381056,-3.971772555225291v-1.4999999999999973a2,2,0,0,0,-1.9999999999999982,-2.0000000000000018h-4.000000000000002a2,2,0,0,0,-2.0000000000000027,2v3a2,2,0,0,0,2.0000000000000027,2.0000000000000004h4.000000000000002a2,2,0,0,0,1.9999999999999982,-2.0000000000000004Z" style="fill:gray; stroke:gray; vector-effect:non-scaling-stroke;stroke-width:1px;" id="e3_shape" transform="matrix(72.6517 0 0 9.46326 219.404 263.961)"/><use xlink:href="#2764" x="234" y="196" width="62" height="63" id="e4_emoji" style="fill:red;stroke:red;stroke-width:4.04px;" /></svg>